<mxfile host="app.diagrams.net" modified="2023-01-09T17:35:14.926Z" agent="5.0 (X11; Linux x86_64) AppleWebKit/537.36 (KHTML, like Gecko) Chrome/108.0.0.0 Safari/537.36" version="20.8.0" etag="daUCZfJrgvZ4QRhUcWAl" type="github">
  <diagram id="QU-ogty2W4qEDEwzZMDG" name="Page-1">
    <mxGraphModel dx="2189" dy="806" grid="1" gridSize="10" guides="1" tooltips="1" connect="1" arrows="1" fold="1" page="1" pageScale="1" pageWidth="827" pageHeight="1169" math="0" shadow="0">
      <root>
        <mxCell id="0" />
        <mxCell id="1" parent="0" />
        <mxCell id="fCYljEYi5Ftqd_SsrrfZ-2" value="" style="edgeStyle=orthogonalEdgeStyle;rounded=0;orthogonalLoop=1;jettySize=auto;html=1;" edge="1" parent="1" source="fCYljEYi5Ftqd_SsrrfZ-3" target="fCYljEYi5Ftqd_SsrrfZ-6">
          <mxGeometry relative="1" as="geometry" />
        </mxCell>
        <mxCell id="fCYljEYi5Ftqd_SsrrfZ-3" value="&lt;b style=&quot;border-color: var(--border-color);&quot;&gt;&lt;font style=&quot;border-color: var(--border-color); font-size: 20px;&quot;&gt;C1&lt;/font&gt;&lt;/b&gt;" style="ellipse;whiteSpace=wrap;html=1;aspect=fixed;fillColor=#d5e8d4;strokeColor=#82b366;" vertex="1" parent="1">
          <mxGeometry x="-110" y="430" width="50" height="50" as="geometry" />
        </mxCell>
        <mxCell id="fCYljEYi5Ftqd_SsrrfZ-4" value="" style="edgeStyle=orthogonalEdgeStyle;rounded=0;orthogonalLoop=1;jettySize=auto;html=1;" edge="1" parent="1" source="fCYljEYi5Ftqd_SsrrfZ-6" target="fCYljEYi5Ftqd_SsrrfZ-7">
          <mxGeometry relative="1" as="geometry" />
        </mxCell>
        <mxCell id="fCYljEYi5Ftqd_SsrrfZ-5" value="" style="edgeStyle=orthogonalEdgeStyle;rounded=1;orthogonalLoop=1;jettySize=auto;html=1;entryX=0.5;entryY=1;entryDx=0;entryDy=0;" edge="1" parent="1" source="fCYljEYi5Ftqd_SsrrfZ-6" target="fCYljEYi5Ftqd_SsrrfZ-9">
          <mxGeometry relative="1" as="geometry" />
        </mxCell>
        <mxCell id="fCYljEYi5Ftqd_SsrrfZ-6" value="&lt;b style=&quot;border-color: var(--border-color);&quot;&gt;&lt;font style=&quot;border-color: var(--border-color); font-size: 20px;&quot;&gt;C2&lt;/font&gt;&lt;/b&gt;" style="ellipse;whiteSpace=wrap;html=1;aspect=fixed;fillColor=#d5e8d4;strokeColor=#82b366;" vertex="1" parent="1">
          <mxGeometry x="-110" y="350" width="50" height="50" as="geometry" />
        </mxCell>
        <mxCell id="fCYljEYi5Ftqd_SsrrfZ-29" value="" style="edgeStyle=orthogonalEdgeStyle;rounded=0;orthogonalLoop=1;jettySize=auto;html=1;" edge="1" parent="1" source="fCYljEYi5Ftqd_SsrrfZ-7" target="fCYljEYi5Ftqd_SsrrfZ-28">
          <mxGeometry relative="1" as="geometry" />
        </mxCell>
        <mxCell id="fCYljEYi5Ftqd_SsrrfZ-7" value="&lt;b style=&quot;border-color: var(--border-color);&quot;&gt;&lt;font style=&quot;border-color: var(--border-color); font-size: 20px;&quot;&gt;C6&lt;/font&gt;&lt;/b&gt;" style="ellipse;whiteSpace=wrap;html=1;aspect=fixed;fillColor=#d5e8d4;strokeColor=#82b366;" vertex="1" parent="1">
          <mxGeometry x="-110" y="260" width="50" height="50" as="geometry" />
        </mxCell>
        <mxCell id="fCYljEYi5Ftqd_SsrrfZ-8" value="" style="edgeStyle=orthogonalEdgeStyle;rounded=0;orthogonalLoop=1;jettySize=auto;html=1;" edge="1" parent="1" source="fCYljEYi5Ftqd_SsrrfZ-9" target="fCYljEYi5Ftqd_SsrrfZ-10">
          <mxGeometry relative="1" as="geometry" />
        </mxCell>
        <mxCell id="fCYljEYi5Ftqd_SsrrfZ-9" value="&lt;b style=&quot;border-color: var(--border-color);&quot;&gt;&lt;font style=&quot;border-color: var(--border-color); font-size: 20px;&quot;&gt;C4&lt;/font&gt;&lt;/b&gt;" style="ellipse;whiteSpace=wrap;html=1;aspect=fixed;fillColor=#ffe6cc;strokeColor=#d79b00;" vertex="1" parent="1">
          <mxGeometry x="-50" y="300" width="50" height="50" as="geometry" />
        </mxCell>
        <mxCell id="fCYljEYi5Ftqd_SsrrfZ-10" value="&lt;b&gt;&lt;font style=&quot;font-size: 20px;&quot;&gt;C5&lt;/font&gt;&lt;/b&gt;" style="ellipse;whiteSpace=wrap;html=1;aspect=fixed;fillColor=#ffe6cc;strokeColor=#d79b00;" vertex="1" parent="1">
          <mxGeometry x="-50" y="230" width="50" height="50" as="geometry" />
        </mxCell>
        <mxCell id="fCYljEYi5Ftqd_SsrrfZ-64" style="edgeStyle=orthogonalEdgeStyle;rounded=1;orthogonalLoop=1;jettySize=auto;html=1;entryX=0;entryY=0.5;entryDx=0;entryDy=0;" edge="1" parent="1" source="fCYljEYi5Ftqd_SsrrfZ-11" target="fCYljEYi5Ftqd_SsrrfZ-28">
          <mxGeometry relative="1" as="geometry" />
        </mxCell>
        <mxCell id="fCYljEYi5Ftqd_SsrrfZ-11" value="main" style="text;html=1;strokeColor=none;fillColor=none;align=center;verticalAlign=middle;whiteSpace=wrap;rounded=0;fontSize=20;" vertex="1" parent="1">
          <mxGeometry x="-180" y="190" width="60" height="30" as="geometry" />
        </mxCell>
        <mxCell id="fCYljEYi5Ftqd_SsrrfZ-65" style="edgeStyle=orthogonalEdgeStyle;rounded=1;orthogonalLoop=1;jettySize=auto;html=1;entryX=1;entryY=0.5;entryDx=0;entryDy=0;" edge="1" parent="1" target="fCYljEYi5Ftqd_SsrrfZ-10">
          <mxGeometry relative="1" as="geometry">
            <mxPoint x="20" y="255" as="sourcePoint" />
          </mxGeometry>
        </mxCell>
        <mxCell id="fCYljEYi5Ftqd_SsrrfZ-12" value="devel" style="text;html=1;strokeColor=none;fillColor=none;align=center;verticalAlign=middle;whiteSpace=wrap;rounded=0;fontSize=20;" vertex="1" parent="1">
          <mxGeometry x="20" y="240" width="60" height="30" as="geometry" />
        </mxCell>
        <mxCell id="fCYljEYi5Ftqd_SsrrfZ-28" value="&lt;b style=&quot;border-color: var(--border-color);&quot;&gt;&lt;font style=&quot;border-color: var(--border-color); font-size: 20px;&quot;&gt;C7&lt;/font&gt;&lt;/b&gt;" style="ellipse;whiteSpace=wrap;html=1;aspect=fixed;fillColor=#d5e8d4;strokeColor=#82b366;" vertex="1" parent="1">
          <mxGeometry x="-110" y="180" width="50" height="50" as="geometry" />
        </mxCell>
        <mxCell id="fCYljEYi5Ftqd_SsrrfZ-30" value="" style="edgeStyle=orthogonalEdgeStyle;rounded=0;orthogonalLoop=1;jettySize=auto;html=1;" edge="1" source="fCYljEYi5Ftqd_SsrrfZ-31" target="fCYljEYi5Ftqd_SsrrfZ-34" parent="1">
          <mxGeometry relative="1" as="geometry" />
        </mxCell>
        <mxCell id="fCYljEYi5Ftqd_SsrrfZ-31" value="&lt;b style=&quot;border-color: var(--border-color);&quot;&gt;&lt;font style=&quot;border-color: var(--border-color); font-size: 20px;&quot;&gt;C1&lt;/font&gt;&lt;/b&gt;" style="ellipse;whiteSpace=wrap;html=1;aspect=fixed;fillColor=#d5e8d4;strokeColor=#82b366;" vertex="1" parent="1">
          <mxGeometry x="183" y="430" width="50" height="50" as="geometry" />
        </mxCell>
        <mxCell id="fCYljEYi5Ftqd_SsrrfZ-32" value="" style="edgeStyle=orthogonalEdgeStyle;rounded=0;orthogonalLoop=1;jettySize=auto;html=1;" edge="1" source="fCYljEYi5Ftqd_SsrrfZ-34" target="fCYljEYi5Ftqd_SsrrfZ-36" parent="1">
          <mxGeometry relative="1" as="geometry" />
        </mxCell>
        <mxCell id="fCYljEYi5Ftqd_SsrrfZ-33" value="" style="edgeStyle=orthogonalEdgeStyle;rounded=1;orthogonalLoop=1;jettySize=auto;html=1;entryX=0.5;entryY=1;entryDx=0;entryDy=0;" edge="1" source="fCYljEYi5Ftqd_SsrrfZ-34" target="fCYljEYi5Ftqd_SsrrfZ-38" parent="1">
          <mxGeometry relative="1" as="geometry" />
        </mxCell>
        <mxCell id="fCYljEYi5Ftqd_SsrrfZ-34" value="&lt;b style=&quot;border-color: var(--border-color);&quot;&gt;&lt;font style=&quot;border-color: var(--border-color); font-size: 20px;&quot;&gt;C2&lt;/font&gt;&lt;/b&gt;" style="ellipse;whiteSpace=wrap;html=1;aspect=fixed;fillColor=#d5e8d4;strokeColor=#82b366;" vertex="1" parent="1">
          <mxGeometry x="183" y="350" width="50" height="50" as="geometry" />
        </mxCell>
        <mxCell id="fCYljEYi5Ftqd_SsrrfZ-35" value="" style="edgeStyle=orthogonalEdgeStyle;rounded=0;orthogonalLoop=1;jettySize=auto;html=1;" edge="1" source="fCYljEYi5Ftqd_SsrrfZ-36" target="fCYljEYi5Ftqd_SsrrfZ-42" parent="1">
          <mxGeometry relative="1" as="geometry" />
        </mxCell>
        <mxCell id="fCYljEYi5Ftqd_SsrrfZ-36" value="&lt;b style=&quot;border-color: var(--border-color);&quot;&gt;&lt;font style=&quot;border-color: var(--border-color); font-size: 20px;&quot;&gt;C6&lt;/font&gt;&lt;/b&gt;" style="ellipse;whiteSpace=wrap;html=1;aspect=fixed;fillColor=#d5e8d4;strokeColor=#82b366;" vertex="1" parent="1">
          <mxGeometry x="183" y="260" width="50" height="50" as="geometry" />
        </mxCell>
        <mxCell id="fCYljEYi5Ftqd_SsrrfZ-37" value="" style="edgeStyle=orthogonalEdgeStyle;rounded=0;orthogonalLoop=1;jettySize=auto;html=1;" edge="1" source="fCYljEYi5Ftqd_SsrrfZ-38" target="fCYljEYi5Ftqd_SsrrfZ-39" parent="1">
          <mxGeometry relative="1" as="geometry" />
        </mxCell>
        <mxCell id="fCYljEYi5Ftqd_SsrrfZ-38" value="&lt;b style=&quot;border-color: var(--border-color);&quot;&gt;&lt;font style=&quot;border-color: var(--border-color); font-size: 20px;&quot;&gt;C4&lt;/font&gt;&lt;/b&gt;" style="ellipse;whiteSpace=wrap;html=1;aspect=fixed;fillColor=#ffe6cc;strokeColor=#d79b00;" vertex="1" parent="1">
          <mxGeometry x="243" y="300" width="50" height="50" as="geometry" />
        </mxCell>
        <mxCell id="fCYljEYi5Ftqd_SsrrfZ-43" style="edgeStyle=orthogonalEdgeStyle;rounded=1;orthogonalLoop=1;jettySize=auto;html=1;entryX=1;entryY=0.5;entryDx=0;entryDy=0;" edge="1" parent="1" source="fCYljEYi5Ftqd_SsrrfZ-39" target="fCYljEYi5Ftqd_SsrrfZ-44">
          <mxGeometry relative="1" as="geometry">
            <mxPoint x="278" y="120" as="targetPoint" />
            <Array as="points">
              <mxPoint x="268" y="125" />
            </Array>
          </mxGeometry>
        </mxCell>
        <mxCell id="fCYljEYi5Ftqd_SsrrfZ-39" value="&lt;b&gt;&lt;font style=&quot;font-size: 20px;&quot;&gt;C5&lt;/font&gt;&lt;/b&gt;" style="ellipse;whiteSpace=wrap;html=1;aspect=fixed;fillColor=#ffe6cc;strokeColor=#d79b00;" vertex="1" parent="1">
          <mxGeometry x="243" y="230" width="50" height="50" as="geometry" />
        </mxCell>
        <mxCell id="fCYljEYi5Ftqd_SsrrfZ-67" style="edgeStyle=orthogonalEdgeStyle;rounded=1;orthogonalLoop=1;jettySize=auto;html=1;" edge="1" parent="1">
          <mxGeometry relative="1" as="geometry">
            <mxPoint x="178" y="125" as="targetPoint" />
            <mxPoint x="158" y="125" as="sourcePoint" />
          </mxGeometry>
        </mxCell>
        <mxCell id="fCYljEYi5Ftqd_SsrrfZ-40" value="main" style="text;html=1;strokeColor=none;fillColor=none;align=center;verticalAlign=middle;whiteSpace=wrap;rounded=0;fontSize=20;" vertex="1" parent="1">
          <mxGeometry x="104" y="110" width="50" height="30" as="geometry" />
        </mxCell>
        <mxCell id="fCYljEYi5Ftqd_SsrrfZ-62" style="edgeStyle=orthogonalEdgeStyle;rounded=1;orthogonalLoop=1;jettySize=auto;html=1;" edge="1" parent="1">
          <mxGeometry relative="1" as="geometry">
            <mxPoint x="298" y="255" as="targetPoint" />
            <mxPoint x="328" y="255" as="sourcePoint" />
          </mxGeometry>
        </mxCell>
        <mxCell id="fCYljEYi5Ftqd_SsrrfZ-41" value="devel" style="text;html=1;strokeColor=none;fillColor=none;align=center;verticalAlign=middle;whiteSpace=wrap;rounded=0;fontSize=20;" vertex="1" parent="1">
          <mxGeometry x="328" y="240" width="60" height="30" as="geometry" />
        </mxCell>
        <mxCell id="fCYljEYi5Ftqd_SsrrfZ-45" value="" style="edgeStyle=orthogonalEdgeStyle;rounded=0;orthogonalLoop=1;jettySize=auto;html=1;" edge="1" parent="1" source="fCYljEYi5Ftqd_SsrrfZ-42" target="fCYljEYi5Ftqd_SsrrfZ-44">
          <mxGeometry relative="1" as="geometry" />
        </mxCell>
        <mxCell id="fCYljEYi5Ftqd_SsrrfZ-42" value="&lt;b style=&quot;border-color: var(--border-color);&quot;&gt;&lt;font style=&quot;border-color: var(--border-color); font-size: 20px;&quot;&gt;C7&lt;/font&gt;&lt;/b&gt;" style="ellipse;whiteSpace=wrap;html=1;aspect=fixed;fillColor=#d5e8d4;strokeColor=#82b366;" vertex="1" parent="1">
          <mxGeometry x="183" y="180" width="50" height="50" as="geometry" />
        </mxCell>
        <mxCell id="fCYljEYi5Ftqd_SsrrfZ-44" value="&lt;b style=&quot;border-color: var(--border-color);&quot;&gt;&lt;font style=&quot;border-color: var(--border-color); font-size: 20px;&quot;&gt;C8&lt;/font&gt;&lt;/b&gt;" style="ellipse;whiteSpace=wrap;html=1;aspect=fixed;fillColor=#f8cecc;strokeColor=#b85450;" vertex="1" parent="1">
          <mxGeometry x="183" y="100" width="50" height="50" as="geometry" />
        </mxCell>
        <mxCell id="fCYljEYi5Ftqd_SsrrfZ-46" value="" style="edgeStyle=orthogonalEdgeStyle;rounded=0;orthogonalLoop=1;jettySize=auto;html=1;" edge="1" source="fCYljEYi5Ftqd_SsrrfZ-47" target="fCYljEYi5Ftqd_SsrrfZ-50" parent="1">
          <mxGeometry relative="1" as="geometry" />
        </mxCell>
        <mxCell id="fCYljEYi5Ftqd_SsrrfZ-47" value="&lt;b style=&quot;border-color: var(--border-color);&quot;&gt;&lt;font style=&quot;border-color: var(--border-color); font-size: 20px;&quot;&gt;C1&lt;/font&gt;&lt;/b&gt;" style="ellipse;whiteSpace=wrap;html=1;aspect=fixed;fillColor=#d5e8d4;strokeColor=#82b366;" vertex="1" parent="1">
          <mxGeometry x="519" y="430" width="50" height="50" as="geometry" />
        </mxCell>
        <mxCell id="fCYljEYi5Ftqd_SsrrfZ-48" value="" style="edgeStyle=orthogonalEdgeStyle;rounded=0;orthogonalLoop=1;jettySize=auto;html=1;exitX=0;exitY=0.5;exitDx=0;exitDy=0;" edge="1" source="fCYljEYi5Ftqd_SsrrfZ-56" target="fCYljEYi5Ftqd_SsrrfZ-52" parent="1">
          <mxGeometry relative="1" as="geometry" />
        </mxCell>
        <mxCell id="fCYljEYi5Ftqd_SsrrfZ-49" value="" style="edgeStyle=orthogonalEdgeStyle;rounded=1;orthogonalLoop=1;jettySize=auto;html=1;entryX=0.5;entryY=1;entryDx=0;entryDy=0;" edge="1" source="fCYljEYi5Ftqd_SsrrfZ-50" target="fCYljEYi5Ftqd_SsrrfZ-54" parent="1">
          <mxGeometry relative="1" as="geometry" />
        </mxCell>
        <mxCell id="fCYljEYi5Ftqd_SsrrfZ-50" value="&lt;b style=&quot;border-color: var(--border-color);&quot;&gt;&lt;font style=&quot;border-color: var(--border-color); font-size: 20px;&quot;&gt;C2&lt;/font&gt;&lt;/b&gt;" style="ellipse;whiteSpace=wrap;html=1;aspect=fixed;fillColor=#d5e8d4;strokeColor=#82b366;" vertex="1" parent="1">
          <mxGeometry x="519" y="350" width="50" height="50" as="geometry" />
        </mxCell>
        <mxCell id="fCYljEYi5Ftqd_SsrrfZ-51" value="" style="edgeStyle=orthogonalEdgeStyle;rounded=0;orthogonalLoop=1;jettySize=auto;html=1;" edge="1" source="fCYljEYi5Ftqd_SsrrfZ-52" target="fCYljEYi5Ftqd_SsrrfZ-60" parent="1">
          <mxGeometry relative="1" as="geometry" />
        </mxCell>
        <mxCell id="fCYljEYi5Ftqd_SsrrfZ-52" value="&lt;b style=&quot;border-color: var(--border-color);&quot;&gt;&lt;font style=&quot;border-color: var(--border-color); font-size: 20px;&quot;&gt;C6&lt;/font&gt;&lt;/b&gt;" style="ellipse;whiteSpace=wrap;html=1;aspect=fixed;fillColor=#d5e8d4;strokeColor=#82b366;" vertex="1" parent="1">
          <mxGeometry x="519" y="145" width="50" height="50" as="geometry" />
        </mxCell>
        <mxCell id="fCYljEYi5Ftqd_SsrrfZ-53" value="" style="edgeStyle=orthogonalEdgeStyle;rounded=0;orthogonalLoop=1;jettySize=auto;html=1;" edge="1" source="fCYljEYi5Ftqd_SsrrfZ-54" target="fCYljEYi5Ftqd_SsrrfZ-56" parent="1">
          <mxGeometry relative="1" as="geometry" />
        </mxCell>
        <mxCell id="fCYljEYi5Ftqd_SsrrfZ-54" value="&lt;b style=&quot;border-color: var(--border-color);&quot;&gt;&lt;font style=&quot;border-color: var(--border-color); font-size: 20px;&quot;&gt;C4&lt;/font&gt;&lt;/b&gt;" style="ellipse;whiteSpace=wrap;html=1;aspect=fixed;fillColor=#ffe6cc;strokeColor=#d79b00;" vertex="1" parent="1">
          <mxGeometry x="579" y="300" width="50" height="50" as="geometry" />
        </mxCell>
        <mxCell id="fCYljEYi5Ftqd_SsrrfZ-56" value="&lt;b&gt;&lt;font style=&quot;font-size: 20px;&quot;&gt;C5&lt;/font&gt;&lt;/b&gt;" style="ellipse;whiteSpace=wrap;html=1;aspect=fixed;fillColor=#ffe6cc;strokeColor=#d79b00;" vertex="1" parent="1">
          <mxGeometry x="579" y="215" width="50" height="50" as="geometry" />
        </mxCell>
        <mxCell id="fCYljEYi5Ftqd_SsrrfZ-69" style="edgeStyle=orthogonalEdgeStyle;rounded=1;orthogonalLoop=1;jettySize=auto;html=1;" edge="1" parent="1" source="fCYljEYi5Ftqd_SsrrfZ-57">
          <mxGeometry relative="1" as="geometry">
            <mxPoint x="514" y="90" as="targetPoint" />
          </mxGeometry>
        </mxCell>
        <mxCell id="fCYljEYi5Ftqd_SsrrfZ-57" value="main" style="text;html=1;strokeColor=none;fillColor=none;align=center;verticalAlign=middle;whiteSpace=wrap;rounded=0;fontSize=20;" vertex="1" parent="1">
          <mxGeometry x="414" y="75" width="60" height="30" as="geometry" />
        </mxCell>
        <mxCell id="fCYljEYi5Ftqd_SsrrfZ-70" style="edgeStyle=orthogonalEdgeStyle;rounded=1;orthogonalLoop=1;jettySize=auto;html=1;entryX=1;entryY=0.5;entryDx=0;entryDy=0;" edge="1" parent="1" source="fCYljEYi5Ftqd_SsrrfZ-58" target="fCYljEYi5Ftqd_SsrrfZ-56">
          <mxGeometry relative="1" as="geometry" />
        </mxCell>
        <mxCell id="fCYljEYi5Ftqd_SsrrfZ-58" value="devel" style="text;html=1;strokeColor=none;fillColor=none;align=center;verticalAlign=middle;whiteSpace=wrap;rounded=0;fontSize=20;" vertex="1" parent="1">
          <mxGeometry x="664" y="225" width="60" height="30" as="geometry" />
        </mxCell>
        <mxCell id="fCYljEYi5Ftqd_SsrrfZ-60" value="&lt;b style=&quot;border-color: var(--border-color);&quot;&gt;&lt;font style=&quot;border-color: var(--border-color); font-size: 20px;&quot;&gt;C7&lt;/font&gt;&lt;/b&gt;" style="ellipse;whiteSpace=wrap;html=1;aspect=fixed;fillColor=#d5e8d4;strokeColor=#82b366;" vertex="1" parent="1">
          <mxGeometry x="519" y="65" width="50" height="50" as="geometry" />
        </mxCell>
        <mxCell id="fCYljEYi5Ftqd_SsrrfZ-71" value="&lt;span style=&quot;font-size: 20px;&quot;&gt;init&lt;/span&gt;" style="text;html=1;strokeColor=none;fillColor=none;align=center;verticalAlign=middle;whiteSpace=wrap;rounded=0;" vertex="1" parent="1">
          <mxGeometry x="-120" y="500" width="60" height="30" as="geometry" />
        </mxCell>
        <mxCell id="fCYljEYi5Ftqd_SsrrfZ-72" value="&lt;span style=&quot;font-size: 20px;&quot;&gt;merge&lt;/span&gt;" style="text;html=1;strokeColor=none;fillColor=none;align=center;verticalAlign=middle;whiteSpace=wrap;rounded=0;" vertex="1" parent="1">
          <mxGeometry x="178" y="500" width="60" height="30" as="geometry" />
        </mxCell>
        <mxCell id="fCYljEYi5Ftqd_SsrrfZ-73" value="&lt;span style=&quot;font-size: 20px;&quot;&gt;rebase&lt;/span&gt;" style="text;html=1;strokeColor=none;fillColor=none;align=center;verticalAlign=middle;whiteSpace=wrap;rounded=0;" vertex="1" parent="1">
          <mxGeometry x="514" y="500" width="60" height="30" as="geometry" />
        </mxCell>
      </root>
    </mxGraphModel>
  </diagram>
</mxfile>
